<?xml version="1.0" encoding="utf-8"?>
<!-- Generator: Adobe Illustrator 16.0.0, SVG Export Plug-In . SVG Version: 6.00 Build 0)  -->
<!DOCTYPE svg PUBLIC "-//W3C//DTD SVG 1.1//EN" "http://www.w3.org/Graphics/SVG/1.1/DTD/svg11.dtd">
<svg version="1.1" xmlns="http://www.w3.org/2000/svg" xmlns:xlink="http://www.w3.org/1999/xlink" x="0px" y="0px" width="80px"
	 height="80px" viewBox="0 0 80 80" enable-background="new 0 0 80 80" xml:space="preserve">
<g id="Слой_2">
	<rect fill="#FFFFFF" width="80" height="80"/>
</g>
<g id="Слой_1">
	<path fill="#F9DB3D" d="M92.882-17.344h-106.06c-2.003,0-3.625,1.624-3.625,3.625v106.06c0,2.003,1.623,3.627,3.625,3.627h106.06
		c2.006,0,3.627-1.624,3.627-3.627v-106.06C96.509-15.72,94.888-17.344,92.882-17.344z M35.266,45.641
		c0,6.748-3.782,10.941-9.872,10.941c-3.825,0-7.243-1.918-9.625-5.402c-1.053-1.542-0.658-3.645,0.884-4.699
		c1.541-1.053,3.646-0.655,4.698,0.886c1.114,1.63,2.475,2.456,4.043,2.456c1.239,0,3.112,0,3.112-4.182V28.432h-9.235
		c-1.866,0-3.38-1.513-3.38-3.38c0-1.866,1.514-3.379,3.38-3.379h12.616c1.866,0,3.379,1.513,3.379,3.379V45.641z M51.876,57.193
		c-4.53,0-9.154-1.91-12.065-4.986c-1.282-1.354-1.224-3.496,0.131-4.778c1.356-1.282,3.497-1.224,4.78,0.131
		c1.626,1.722,4.501,2.873,7.154,2.873c2.717,0,5.89-0.79,5.89-3.026c0.018-2.104-1.104-2.895-6.314-4.474
		c-4.596-1.392-11.541-3.495-11.541-11.501c0-5.981,5.186-10.001,12.905-10.001c3.437,0,7.186,1.042,9.78,2.72
		c1.567,1.013,2.017,3.106,1.005,4.673c-1.016,1.568-3.107,2.018-4.675,1.004c-1.49-0.963-4.004-1.637-6.11-1.637
		c-2.834,0-6.146,0.849-6.146,3.241c0,2.598,1.521,3.451,6.741,5.031c4.451,1.348,11.177,3.385,11.115,10.971
		C64.524,53.26,59.441,57.193,51.876,57.193z"/>
</g>
</svg>
