<svg width="354" height="453" viewBox="0 0 354 453" fill="none" xmlns="http://www.w3.org/2000/svg">
<path d="M311.089 94.8293C305.65 89.3907 298.421 86.4062 290.727 86.4062C283.034 86.4062 275.804 89.3907 270.3 94.8293L227.587 137.542L270.3 180.255C275.738 185.693 282.967 188.678 290.661 188.678C298.355 188.678 305.584 185.693 311.022 180.255L353.735 137.542L311.089 94.8293ZM290.661 179.326C285.488 179.326 280.58 177.336 276.932 173.622L245.561 142.251H257.831L294.508 178.928C293.248 179.193 291.987 179.326 290.661 179.326ZM309.829 168.25L304.39 173.689C304.058 174.02 303.727 174.285 303.395 174.551L271.095 142.251H283.763L309.829 168.25ZM322.828 155.25L316.461 161.618L297.094 142.251H309.762L322.828 155.25ZM329.527 148.552L323.16 142.185H335.894L329.527 148.552ZM335.629 132.767L245.561 132.833L276.932 101.462C280.58 97.8139 285.488 95.7578 290.661 95.7578C295.834 95.7578 300.742 97.7476 304.39 101.462L335.629 132.767Z" fill="#76BC21"/>
<path d="M228.052 38.4539C227.388 39.0508 226.46 39.3161 225.863 38.9845C225.332 38.6529 225.133 38.2549 225.067 37.9233C225.001 37.658 225.001 37.1274 225.332 36.6632C229.179 31.2909 230.572 24.6585 229.113 18.0261C227.256 9.404 220.159 2.37365 211.471 0.51658C204.507 -0.942548 197.344 0.715552 191.905 5.15926C186.467 9.60297 183.349 16.169 183.349 23.1331C183.349 27.8421 184.742 32.4184 187.461 36.2652C187.859 36.8621 188.058 37.658 187.859 38.056C187.461 38.7855 186.798 38.9845 186.533 39.0508C186.334 39.1171 185.803 39.1171 185.472 38.7855C180.895 34.4081 174.595 32.5511 168.294 33.6786C160.136 35.1377 153.504 41.7701 152.111 49.928C150.983 56.3614 152.84 62.6622 157.218 67.2385L170.483 80.5033C173.467 83.4879 177.712 84.8144 181.957 84.1511C183.88 83.8195 185.803 85.146 186.135 87.0694L187.196 93.1712C187.727 96.2884 189.186 99.1404 191.441 101.395L206.563 116.517L221.751 101.329C224.006 99.074 225.465 96.2221 225.996 93.1049L227.057 87.0694C227.388 85.146 229.246 83.8195 231.235 84.1511C235.414 84.8807 239.658 83.4879 242.643 80.5033L255.576 67.5701C259.357 63.7897 261.346 58.8154 261.346 53.5095C261.346 52.3819 261.28 51.3208 261.081 50.1933C259.755 42.0354 253.189 35.2704 245.031 33.7449C238.863 32.6174 232.694 34.3418 228.052 38.4539ZM251.729 51.6524C252.26 55.1676 251.199 58.4838 248.811 60.8714L235.878 73.8046C235.082 74.6005 233.888 74.9984 232.761 74.7995C225.664 73.6056 218.965 78.381 217.705 85.4113L216.644 91.4468C216.445 92.6406 215.848 93.7681 214.986 94.6303L211.205 98.4108L211.338 63.856L201.92 63.7897L201.787 98.4771L198.007 94.6966C197.145 93.8344 196.548 92.7069 196.349 91.5131L195.288 85.4113C194.094 78.3146 187.329 73.5393 180.166 74.7995C179.038 74.9984 177.844 74.6005 177.049 73.8046L163.916 60.6724C161.661 58.2848 160.733 54.9023 161.33 51.4534C162.059 47.1423 165.575 43.6272 169.819 42.8976C173.202 42.3007 176.452 43.2956 178.906 45.6169C181.36 47.9382 184.676 48.8668 188.058 48.2699C191.507 47.6729 194.558 45.4179 196.15 42.2344C197.941 38.7192 197.543 34.3418 195.089 30.8266C193.497 28.5053 192.635 25.8523 192.635 23.0667C192.635 18.8883 194.492 15.0415 197.742 12.3886C200.992 9.73561 205.17 8.74076 209.415 9.66929C214.522 10.7305 218.634 14.8426 219.761 19.9495C220.623 23.9289 219.828 27.8421 217.506 31.0919C215.649 33.6123 215.052 36.8621 215.715 39.913C216.379 42.9639 218.368 45.6169 221.154 47.1423C225.266 49.3974 230.506 48.7341 234.22 45.4179C236.674 43.2292 239.857 42.367 243.174 42.9639C247.551 43.7598 251.066 47.3413 251.729 51.6524Z" fill="#76BC21"/>
<path d="M115.698 81.1002L167.431 132.899H152.641L108.27 88.5285L101.638 95.1609L139.31 132.899H124.52L94.2095 102.523L87.5771 109.222L111.255 132.899H96.4645L80.1488 116.584L73.5164 123.282L83.1334 132.899H63.8994V142.317H83.1334L73.5164 151.868L80.1488 158.567L96.4645 142.317H111.188L87.5771 165.929L94.2095 172.627L124.52 142.317H139.31L101.638 179.989L108.27 186.688L152.641 142.317H167.431L115.698 194.05L122.331 200.682L185.471 137.608L122.331 74.4678L115.698 81.1002Z" fill="#76BC21"/>
<path d="M206.497 158.633L143.091 222.039L157.483 226.814C160.866 227.942 163.452 230.595 164.58 233.977L169.222 248.237L182.819 234.64L177.977 256.726H185.339C189.584 256.726 193.431 259.114 195.354 262.894L206.497 285.245L217.639 262.894C219.496 259.114 223.409 256.726 227.654 256.726H235.082L230.241 234.64L243.837 248.237L248.48 233.977C249.607 230.595 252.194 227.942 255.576 226.814L269.969 222.039L206.497 158.633ZM252.459 217.927L249.209 218.988C245.097 220.381 241.914 223.564 240.521 227.743L239.526 230.727L222.945 214.212L221.022 216.136C218.7 218.457 217.705 221.84 218.369 225.09L223.21 247.308C218.037 247.308 213.328 250.226 211.007 254.869L206.364 264.154L201.721 254.869C199.4 250.226 194.691 247.308 189.518 247.308L194.359 225.09C195.089 221.84 194.094 218.457 191.706 216.136L189.982 214.212L173.401 230.793L172.406 227.809C171.08 223.697 167.83 220.447 163.718 219.054L160.468 217.993L201.721 176.739L201.655 207.447H211.073L211.139 176.673L252.459 217.927Z" fill="#76BC21"/>
<path d="M143.355 262.563C137.917 257.124 130.688 254.14 122.994 254.14C115.3 254.14 108.071 257.124 102.566 262.563L59.8535 305.275L102.566 347.988C108.005 353.427 115.234 356.411 122.928 356.411C130.621 356.411 137.851 353.427 143.289 347.988L186.002 305.275L143.355 262.563ZM122.928 347.059C117.754 347.059 112.846 345.07 109.199 341.356L77.8273 309.984H90.0973L126.774 346.662C125.514 346.927 124.254 347.059 122.928 347.059ZM142.095 335.983L136.657 341.422C136.325 341.754 135.993 342.019 135.662 342.284L103.362 309.984H116.03L142.095 335.983ZM155.095 322.984L148.728 329.351L129.361 309.984H142.029L155.095 322.984ZM161.727 316.285L155.36 309.918H168.094L161.727 316.285ZM167.895 300.5L77.8273 300.566L109.199 269.195C112.846 265.547 117.754 263.491 122.928 263.491C128.101 263.491 133.009 265.481 136.657 269.195L167.895 300.5Z" fill="#76BC21"/>
<path d="M60.3183 206.187C59.6551 206.784 58.7265 207.05 58.1296 206.718C57.599 206.386 57.4001 205.988 57.3337 205.657C57.2674 205.391 57.2674 204.861 57.599 204.397C61.4458 199.024 62.8386 192.392 61.3795 185.76C59.5224 177.137 52.4258 170.107 43.7373 168.25C36.7733 166.791 29.6103 168.449 24.1717 172.893C18.7332 177.336 15.616 183.902 15.616 190.866C15.616 195.575 17.0088 200.152 19.728 203.999C20.126 204.596 20.325 205.391 20.126 205.789C19.728 206.519 19.0648 206.718 18.7995 206.784C18.6005 206.851 18.0699 206.851 17.7383 206.519C13.162 202.142 6.86118 200.284 0.5604 201.412C-7.59745 202.805 -14.2298 209.503 -15.6227 217.661C-16.7502 224.095 -14.8931 230.396 -10.5157 234.972L2.74909 248.237C5.73367 251.221 9.97841 252.548 14.2231 251.885C16.1465 251.553 18.0699 252.879 18.4016 254.803L19.4627 260.905C19.9933 264.022 21.4525 266.874 23.7075 269.129L38.8293 284.251L54.0175 269.062C56.2726 266.807 57.7317 263.955 58.2623 260.838L59.3235 254.803C59.6551 252.879 61.5122 251.553 63.5019 251.885C67.6803 252.614 71.925 251.221 74.9096 248.237L87.8428 235.304C91.6233 231.523 93.613 226.549 93.613 221.243C93.613 220.115 93.5466 219.054 93.3477 217.927C92.0212 209.769 85.4551 203.004 77.2973 201.478C71.1291 200.351 64.961 202.075 60.3183 206.187ZM83.996 219.386C84.5266 222.901 83.4654 226.217 81.0777 228.605L68.1445 241.538C67.3487 242.334 66.1548 242.732 65.0273 242.533C57.9307 241.339 51.2319 246.114 49.9718 253.145L48.9106 259.18C48.7116 260.374 48.1147 261.502 47.2525 262.364L43.472 266.144L43.6047 231.589L34.1867 231.523L34.054 266.211L30.2735 262.43C29.4113 261.568 28.8144 260.44 28.6154 259.246L27.5543 253.145C26.3604 246.048 19.5954 241.273 12.4324 242.533C11.3049 242.732 10.1111 242.334 9.31517 241.538L-3.81698 228.406C-6.07199 226.018 -7.00054 222.636 -6.40362 219.187C-5.67406 214.876 -2.15888 211.361 2.08585 210.631C5.46838 210.034 8.71825 211.029 11.1722 213.35C13.6262 215.672 16.9424 216.6 20.325 216.003C23.7738 215.406 26.8247 213.151 28.4165 209.968C30.2072 206.453 29.8093 202.075 27.3553 198.56C25.7635 196.239 24.9013 193.586 24.9013 190.8C24.9013 186.622 26.7584 182.775 30.0083 180.122C33.2581 177.469 37.4365 176.474 41.6813 177.403C46.7882 178.464 50.9003 182.576 52.0278 187.683C52.89 191.662 52.0941 195.575 49.7728 198.825C47.9157 201.346 47.3188 204.596 47.9821 207.646C48.6453 210.697 50.635 213.35 53.4206 214.876C57.5327 217.131 62.7723 216.468 66.4864 213.151C68.9404 210.963 72.124 210.1 75.4402 210.697C79.8176 211.56 83.2664 215.075 83.996 219.386Z" fill="#76BC21"/>
<path d="M-52.1013 248.834L-0.302223 300.633H-15.0925L-59.4632 256.262L-66.0956 262.894L-28.4236 300.633H-43.2139L-73.5239 270.323L-80.1563 276.955L-56.545 300.633H-71.2689L-87.5846 284.317L-94.217 291.016L-84.6 300.633H-103.834V310.051H-84.6L-94.217 319.668L-87.5846 326.3L-71.2689 310.051H-56.545L-80.1563 333.662L-73.5239 340.361L-43.2139 310.051H-28.4236L-66.162 347.723L-59.4632 354.421L-15.0925 310.051H-0.302223L-52.1013 361.783L-45.4025 368.482L17.7379 305.342L-45.4025 242.201L-52.1013 248.834Z" fill="#76BC21"/>
<path d="M38.7632 326.366L-24.6426 389.772L-10.2503 394.547C-6.86774 395.675 -4.28111 398.328 -3.1536 401.71L1.48908 415.97L15.0855 402.374L10.2438 424.46H17.6058C21.8505 424.46 25.6973 426.847 27.6207 430.628L38.7632 452.979L49.9056 430.628C51.7627 426.847 55.6758 424.46 59.9205 424.46H67.2825L62.4408 402.374L76.0373 415.97L80.6799 401.71C81.8074 398.328 84.3941 395.675 87.7766 394.547L102.169 389.772L38.7632 326.366ZM84.7257 385.66L81.4758 386.721C77.3637 388.114 74.1802 391.298 72.7874 395.476L71.7925 398.461L55.2115 381.946L53.2881 383.869C50.9668 386.191 49.9719 389.573 50.6352 392.823L55.4768 415.042C50.3035 415.042 45.5945 417.96 43.2732 422.602L38.6305 431.888L33.9878 422.602C31.6665 417.96 26.9575 415.042 21.7842 415.042L26.6259 392.823C27.3554 389.573 26.3606 386.191 23.9729 383.869L22.0495 381.946L5.46852 398.527L4.47366 395.542C3.14718 391.43 -0.102703 388.18 -4.21479 386.788L-7.46466 385.726L33.7889 344.473L33.7225 375.181H43.1405L43.2069 344.406L84.7257 385.66Z" fill="#76BC21"/>
</svg>
