<svg width="190" height="141" viewBox="0 0 190 141" fill="none" xmlns="http://www.w3.org/2000/svg">
<path d="M49.0859 138.393L50.1257 137.791C50.454 138.885 51.2748 139.432 52.5335 139.432C53.7373 139.432 54.4487 138.885 54.4487 138.064C54.4487 137.627 54.2846 137.298 53.9562 137.079C53.6279 136.861 53.0807 136.642 52.3146 136.423L51.439 136.149C51.2201 136.094 51.0012 135.93 50.6729 135.821C50.3993 135.657 50.1804 135.492 50.0162 135.383C49.7426 135.055 49.469 134.562 49.469 133.906C49.469 133.139 49.7426 132.537 50.2898 132.045C50.8371 131.607 51.4937 131.334 52.2598 131.334C53.6826 131.334 54.7771 132.1 55.2696 133.304L54.2846 133.906C53.9015 132.975 53.2448 132.537 52.2598 132.537C51.2748 132.537 50.6182 133.03 50.6182 133.851C50.6182 134.234 50.7823 134.562 51.0559 134.726C51.3296 134.945 51.8221 135.164 52.5335 135.383L53.0807 135.547C53.1901 135.602 53.3543 135.657 53.5732 135.711C54.011 135.876 54.1204 135.93 54.4487 136.149C54.8318 136.368 54.9412 136.477 55.1601 136.751C55.4885 137.079 55.5979 137.517 55.5979 138.119C55.5979 138.885 55.3243 139.542 54.7224 139.98C54.1204 140.417 53.409 140.691 52.4787 140.691C50.7823 140.582 49.5784 139.761 49.0859 138.393Z" fill="#76BC21"/>
<path d="M67.4183 140.418H65.9408L62.0555 136.095V140.418H60.8516V131.443H62.0555V135.493L65.7766 131.443H67.2541L63.3141 135.821L67.4183 140.418Z" fill="#76BC21"/>
<path d="M72.5087 132.647C73.3842 131.717 74.4787 131.279 75.792 131.279C77.1054 131.279 78.1998 131.717 79.0754 132.647C80.0057 133.523 80.4434 134.617 80.4434 135.931C80.4434 137.244 80.0057 138.284 79.0754 139.214C78.1998 140.144 77.1054 140.582 75.792 140.582C74.4787 140.582 73.3842 140.144 72.5087 139.214C71.6331 138.284 71.1406 137.244 71.1406 135.931C71.1953 134.672 71.6331 133.523 72.5087 132.647ZM78.2545 133.468C77.5979 132.811 76.777 132.483 75.792 132.483C74.807 132.483 73.9862 132.811 73.3295 133.468C72.6729 134.125 72.3445 134.946 72.3445 135.931C72.3445 136.916 72.6729 137.736 73.3295 138.393C73.9862 139.05 74.807 139.378 75.792 139.378C76.777 139.378 77.5979 139.05 78.2545 138.393C78.9112 137.736 79.2395 136.916 79.2395 135.931C79.2943 134.946 78.9659 134.125 78.2545 133.468Z" fill="#76BC21"/>
<path d="M87.0652 139.269H90.9505V140.418H85.916V131.443H87.1199V139.269H87.0652Z" fill="#76BC21"/>
<path d="M102.605 140.418H101.127L97.242 136.095V140.418H96.0381V131.443H97.242V135.493L100.963 131.443H102.441L98.5006 135.821L102.605 140.418Z" fill="#76BC21"/>
<path d="M107.749 132.647C108.624 131.717 109.719 131.279 111.032 131.279C112.346 131.279 113.44 131.717 114.316 132.647C115.246 133.523 115.684 134.617 115.684 135.931C115.684 137.244 115.246 138.284 114.316 139.214C113.44 140.144 112.346 140.582 111.032 140.582C109.719 140.582 108.624 140.144 107.749 139.214C106.873 138.284 106.381 137.244 106.381 135.931C106.381 134.672 106.819 133.523 107.749 132.647ZM113.495 133.468C112.838 132.811 112.017 132.483 111.032 132.483C110.047 132.483 109.226 132.811 108.57 133.468C107.913 134.125 107.585 134.946 107.585 135.931C107.585 136.916 107.913 137.736 108.57 138.393C109.226 139.05 110.047 139.378 111.032 139.378C112.017 139.378 112.838 139.05 113.495 138.393C114.151 137.736 114.48 136.916 114.48 135.931C114.48 134.946 114.151 134.125 113.495 133.468Z" fill="#76BC21"/>
<path d="M123.017 140.418L119.843 131.443H121.101L123.673 138.94L126.245 131.443H127.559L124.33 140.418H123.017Z" fill="#76BC21"/>
<path d="M133.031 132.647C133.907 131.717 135.001 131.279 136.314 131.279C137.628 131.279 138.722 131.717 139.598 132.647C140.528 133.523 140.966 134.617 140.966 135.931C140.966 137.244 140.528 138.284 139.598 139.214C138.722 140.144 137.628 140.582 136.314 140.582C135.001 140.582 133.907 140.144 133.031 139.214C132.156 138.284 131.663 137.244 131.663 135.931C131.718 134.672 132.156 133.523 133.031 132.647ZM138.777 133.468C138.12 132.811 137.299 132.483 136.314 132.483C135.329 132.483 134.509 132.811 133.852 133.468C133.195 134.125 132.867 134.946 132.867 135.931C132.867 136.916 133.195 137.736 133.852 138.393C134.509 139.05 135.329 139.378 136.314 139.378C137.299 139.378 138.12 139.05 138.777 138.393C139.434 137.736 139.762 136.916 139.762 135.931C139.817 134.946 139.488 134.125 138.777 133.468Z" fill="#76BC21"/>
<path d="M47.2819 106.435C45.695 109.445 42.5758 111.196 39.0188 111.196C33.5466 111.196 29.2782 106.873 29.2782 101.401C29.2782 95.8736 33.5466 91.6053 39.0188 91.6053C42.6852 91.6053 45.8044 93.4111 47.1725 96.3662L47.2819 96.585L49.635 95.217L49.5255 94.9981C47.7744 91.1675 43.7249 88.8145 39.0188 88.8145C31.7955 88.8145 26.3779 94.232 26.3779 101.346C26.3779 108.515 31.7955 113.877 39.0188 113.877C43.6702 113.877 47.7197 111.524 49.6897 107.748L49.7991 107.53L47.3913 106.107L47.2819 106.435Z" fill="#006937"/>
<path d="M12.4767 88.8693C5.25335 88.8693 0 94.1227 0 101.401C0 108.679 5.30808 113.932 12.6409 113.932C17.2376 113.932 21.0134 111.962 23.1476 108.515L23.257 108.296L20.7398 106.818L20.6304 107.037C19.2076 109.664 16.2526 111.196 12.6956 111.196C7.49697 111.196 3.61168 107.858 2.95501 102.824H24.2968V102.605C24.2968 102.44 24.2968 102.222 24.2968 102.057C24.2968 101.839 24.2968 101.674 24.2968 101.455C24.3515 93.3018 18.2226 88.8693 12.4767 88.8693ZM2.95501 100.087C3.50224 95.053 7.38753 91.6054 12.4767 91.6054C17.2923 91.6054 20.8492 94.9982 21.3965 100.087H2.95501Z" fill="#006937"/>
<path d="M129.964 94.1227C127.776 90.7846 124.219 88.8693 120.06 88.8693C113.055 88.8693 107.583 94.3963 107.583 101.401C107.583 108.405 113.055 113.932 120.06 113.932C124.219 113.932 127.776 112.017 129.964 108.679V113.385H132.865V89.3071H129.964V94.1227ZM129.964 101.401C129.964 106.928 125.696 111.196 120.224 111.196C114.752 111.196 110.483 106.873 110.483 101.401C110.483 95.8738 114.752 91.6054 120.224 91.6054C125.696 91.6054 129.964 95.9285 129.964 101.401Z" fill="#006937"/>
<path d="M159.133 94.2321C156.999 90.8393 153.442 88.8693 149.229 88.8693C142.224 88.8693 136.752 94.3963 136.752 101.401C136.752 108.405 142.224 113.932 149.229 113.932C153.442 113.932 156.999 112.017 159.133 108.569V112.017C159.133 117.325 155.631 120.608 149.995 120.608C145.562 120.608 142.607 119.131 141.13 116.176L141.02 115.957L138.558 117.38L138.667 117.599C140.473 121.265 144.632 123.399 149.995 123.399C157.163 123.399 161.979 118.857 161.979 112.072V89.3618H159.133V94.2321ZM159.133 101.401C159.133 106.928 154.865 111.196 149.393 111.196C143.921 111.196 139.652 106.873 139.652 101.401C139.652 95.8738 143.921 91.6054 149.393 91.6054C154.865 91.6054 159.133 95.9285 159.133 101.401Z" fill="#006937"/>
<path d="M178.177 88.8693C170.954 88.8693 165.7 94.1227 165.7 101.401C165.7 108.679 171.008 113.932 178.341 113.932C182.938 113.932 186.714 111.962 188.848 108.515L188.957 108.296L186.44 106.818L186.331 107.037C184.908 109.664 181.953 111.196 178.396 111.196C173.197 111.196 169.312 107.858 168.655 102.824H189.997V102.605C189.997 102.44 189.997 102.222 189.997 102.057C189.997 101.839 189.997 101.674 189.997 101.455C190.052 93.3018 183.978 88.8693 178.177 88.8693ZM168.71 100.087C169.257 95.053 173.142 91.6054 178.232 91.6054C183.047 91.6054 186.604 94.9982 187.151 100.087H168.71Z" fill="#006937"/>
<path d="M63.8059 88.8693C56.692 88.8693 51.165 94.3963 51.165 101.401C51.165 108.405 56.692 113.932 63.8059 113.932C70.8651 113.932 76.3921 108.405 76.3921 101.401C76.3921 94.3963 70.8651 88.8693 63.8059 88.8693ZM73.5465 101.401C73.5465 106.928 69.2782 111.196 63.8059 111.196C58.3337 111.196 54.0653 106.873 54.0653 101.401C54.0653 95.8738 58.3337 91.6054 63.8059 91.6054C69.2782 91.6054 73.5465 95.9285 73.5465 101.401Z" fill="#006937"/>
<path d="M99.8133 82.6856L96.913 83.5064V89.3617H85.2024V82.6856L82.3021 83.5064V89.3617H77.1582V92.1526H82.3568V107.256C82.3568 109.609 82.9588 111.251 84.2174 112.29C85.7496 113.604 88.3216 113.987 92.0974 113.385L92.3163 113.33V110.758H92.0427C89.2519 111.032 87.2271 111.087 86.1874 110.156C85.5855 109.609 85.3118 108.624 85.3118 107.147V92.0431H97.0225V107.256C97.0225 109.609 97.6244 111.251 98.883 112.29C99.9775 113.221 101.51 113.659 103.644 113.659C104.574 113.659 105.614 113.549 106.763 113.385L106.982 113.33V110.758H106.708C103.917 111.032 101.893 111.087 100.853 110.156C100.251 109.609 99.9775 108.624 99.9775 107.147V92.0431H106.982V89.2523H99.9775V82.6856H99.8133Z" fill="#006937"/>
<path d="M126.298 44.4347C126.298 42.1363 125.423 39.9474 123.781 38.3057C122.139 36.6641 119.951 35.7885 117.652 35.7885H99.4844V53.9564C99.4844 56.2547 100.36 58.4436 102.002 60.0853C103.643 61.727 105.832 62.6025 108.131 62.6025H126.298V44.4347ZM104.026 58.0058C102.932 56.9114 102.33 55.4339 102.33 53.9016V40.6041L104.957 43.2308V58.8267C104.628 58.553 104.3 58.2794 104.026 58.0058ZM110.484 59.7569H108.185C108.076 59.7569 107.912 59.7569 107.802 59.7569V46.0216L110.484 48.703V59.7569ZM116.011 59.7569H113.274V51.5486L115.956 54.23V59.7569H116.011ZM118.801 59.7569V57.0755L121.538 59.7569H118.801ZM123.508 57.6775L104.355 38.5794H117.652C119.184 38.5794 120.662 39.1813 121.756 40.2758C122.851 41.3702 123.453 42.8477 123.453 44.3799L123.508 57.6775Z" fill="#00AC69"/>
<path d="M120.662 14.8298C120.388 14.8298 120.115 14.6656 120.115 14.5014C120.06 14.3373 120.115 14.1731 120.169 14.1184C120.224 14.0637 120.334 13.9542 120.498 13.8995C122.468 13.5711 124.164 12.4767 125.259 10.7256C126.681 8.48196 126.681 5.47223 125.259 3.28333C124.109 1.47749 122.194 0.328317 120.115 0.109427C118.035 -0.109462 115.956 0.601929 114.478 2.13416C113.493 3.11916 112.837 4.37778 112.563 5.80056C112.508 6.01945 112.399 6.23834 112.235 6.23834C112.016 6.29306 111.797 6.23834 111.742 6.18362C111.687 6.1289 111.578 6.07417 111.578 5.91001C111.469 3.94 110.538 2.18888 109.006 1.09443C106.981 -0.328352 104.136 -0.328352 102.111 1.09443C100.524 2.2436 99.5938 3.94 99.5391 5.85528V11.4917C99.5391 12.7503 100.141 13.9542 101.181 14.7203C101.673 15.0487 101.783 15.76 101.454 16.2525L100.36 17.7848C99.8127 18.5509 99.5391 19.4812 99.5391 20.4662V26.8687H105.996C106.981 26.8687 107.857 26.5951 108.678 26.0479L110.155 25.0081C110.648 24.6798 111.304 24.7892 111.687 25.2818C112.399 26.3215 113.603 26.9234 114.861 26.9234H120.334C121.921 26.9234 123.453 26.2668 124.547 25.1723C124.766 24.9534 124.985 24.6798 125.204 24.4062C126.681 22.3815 126.681 19.5359 125.313 17.5112C124.219 15.8695 122.522 14.9392 120.662 14.8298ZM122.906 22.6551C122.304 23.5306 121.319 24.0231 120.334 24.0231H114.861C114.533 24.0231 114.205 23.859 113.986 23.5854C112.727 21.8342 110.319 21.3965 108.514 22.6551L107.036 23.6948C106.708 23.9137 106.379 24.0231 105.996 24.0231H104.409L111.797 16.7451L109.827 14.7203L102.33 21.9984V20.4115C102.33 20.0284 102.439 19.7001 102.658 19.3717L103.753 17.8395C105.011 16.0884 104.574 13.6259 102.822 12.3673C102.549 12.1484 102.385 11.82 102.385 11.4917V5.91001C102.439 4.925 102.932 3.99472 103.807 3.39277C104.902 2.62666 106.379 2.62666 107.419 3.39277C108.24 3.99472 108.732 4.87028 108.787 5.91001C108.842 6.89501 109.334 7.82529 110.155 8.42724C111.031 9.02919 112.125 9.19335 113.165 8.86502C114.314 8.48196 115.135 7.49696 115.354 6.23834C115.518 5.4175 115.901 4.65139 116.503 4.04944C117.379 3.17388 118.582 2.7361 119.841 2.84555C121.1 2.95499 122.194 3.66639 122.906 4.76083C123.781 6.07417 123.781 7.82529 122.906 9.13863C122.249 10.1784 121.264 10.835 120.06 11.0539C119.13 11.2181 118.309 11.7653 117.816 12.5314C117.324 13.3523 117.16 14.2825 117.433 15.2128C117.816 16.5809 119.075 17.5112 120.552 17.6206C121.537 17.6753 122.413 18.1678 122.96 18.9887C123.672 20.0831 123.672 21.5606 122.906 22.6551Z" fill="#76BC21"/>
<path d="M87.7194 0V21.9984L84.6002 18.8245V0H81.7547V16.0337L78.6355 12.8598V0H75.7899V10.0689L72.6707 6.89503V0H69.8252V4.10418L65.7757 0L63.751 2.02473L67.8552 6.07419H63.751V8.91976H70.646L73.8199 12.0389H63.751V14.8845H76.6108L79.7847 18.0037H63.751V20.8493H82.5755L85.7494 23.9684H63.751V26.814H90.565V0H87.7194Z" fill="#00AC69"/>
<path d="M90.566 35.7338H63.6426L65.6673 39.7832C66.1598 40.7135 66.1598 41.8627 65.6673 42.793L63.6426 46.7877H69.3884L63.6973 50.4541L65.2843 52.0411C66.1598 52.9166 66.4881 54.2847 66.1051 55.4886L63.752 62.6025L70.8659 60.2494C72.0698 59.8664 73.3832 60.14 74.3135 61.0703L75.9004 62.6572L79.5668 56.9661V62.7119L83.5615 60.6872C84.4918 60.1947 85.641 60.1947 86.5713 60.6872L90.6207 62.7119L90.566 35.7338ZM87.7204 58.1152L86.7902 57.6775C85.641 57.0755 84.2729 57.0755 83.1238 57.6775L82.3029 58.1152V51.1108H81.4821C80.4971 51.1108 79.5668 51.6033 79.0196 52.4788L75.3532 58.2247C74.2587 57.1302 72.6171 56.7472 71.1395 57.2397L68.1845 58.2247L69.1695 55.2697C69.662 53.7922 69.279 52.1505 68.1845 51.056L73.9304 47.3896C74.7512 46.8424 75.2985 45.9121 75.2985 44.9271V44.1063H68.294L68.7318 43.2855C69.3337 42.1363 69.3337 40.7682 68.7318 39.6191L68.294 38.6888H85.8052L79.2932 45.2007L81.2632 47.2255L87.8299 40.7135L87.7204 58.1152Z" fill="#76BC21"/>
</svg>
