<svg width="555" height="683" viewBox="0 0 555 683" fill="none" xmlns="http://www.w3.org/2000/svg">
<path d="M625.6 142.979C617.4 134.779 606.5 130.279 594.9 130.279C583.3 130.279 572.4 134.779 564.1 142.979L499.7 207.379L564.1 271.779C572.3 279.979 583.2 284.479 594.8 284.479C606.4 284.479 617.3 279.979 625.5 271.779L689.9 207.379L625.6 142.979ZM594.8 270.379C587 270.379 579.6 267.379 574.1 261.779L526.8 214.479H545.3L600.6 269.779C598.7 270.179 596.8 270.379 594.8 270.379ZM623.7 253.679L615.5 261.879C615 262.379 614.5 262.779 614 263.179L565.3 214.479H584.4L623.7 253.679ZM643.3 234.079L633.7 243.679L604.5 214.479H623.6L643.3 234.079ZM653.4 223.979L643.8 214.379H663L653.4 223.979ZM662.6 200.179L526.8 200.279L574.1 152.979C579.6 147.479 587 144.379 594.8 144.379C602.6 144.379 610 147.379 615.5 152.979L662.6 200.179Z" fill="#00AC69"/>
<path d="M500.401 57.9789C499.401 58.8789 498.001 59.2789 497.101 58.7789C496.301 58.2789 496.001 57.6789 495.901 57.1789C495.801 56.7789 495.801 55.9789 496.301 55.2789C502.101 47.1789 504.201 37.1789 502.001 27.1789C499.201 14.1789 488.501 3.57887 475.401 0.778873C464.901 -1.42113 454.101 1.07887 445.901 7.77887C437.701 14.4789 433.001 24.3789 433.001 34.8789C433.001 41.9789 435.101 48.8789 439.201 54.6789C439.801 55.5789 440.101 56.7789 439.801 57.3789C439.201 58.4789 438.201 58.7789 437.801 58.8789C437.501 58.9789 436.701 58.9789 436.201 58.4789C429.301 51.8789 419.801 49.0789 410.301 50.7789C398.001 52.9789 388.001 62.9789 385.901 75.2789C384.201 84.9789 387.001 94.4789 393.601 101.379L413.601 121.379C418.101 125.879 424.501 127.879 430.901 126.879C433.801 126.379 436.701 128.379 437.201 131.279L438.801 140.479C439.601 145.179 441.801 149.479 445.201 152.879L468.001 175.679L490.901 152.779C494.301 149.379 496.501 145.079 497.301 140.379L498.901 131.279C499.401 128.379 502.201 126.379 505.201 126.879C511.501 127.979 517.901 125.879 522.401 121.379L541.901 101.879C547.601 96.1789 550.601 88.6789 550.601 80.6789C550.601 78.9789 550.501 77.3789 550.201 75.6789C548.201 63.3789 538.301 53.1789 526.001 50.8789C516.701 49.1789 507.401 51.7789 500.401 57.9789ZM536.101 77.8789C536.901 83.1789 535.301 88.1789 531.701 91.7789L512.201 111.279C511.001 112.479 509.201 113.079 507.501 112.779C496.801 110.979 486.701 118.179 484.801 128.779L483.201 137.879C482.901 139.679 482.001 141.379 480.701 142.679L475.001 148.379L475.201 96.2789L461.001 96.1789L460.801 148.479L455.101 142.779C453.801 141.479 452.901 139.779 452.601 137.979L451.001 128.779C449.201 118.079 439.001 110.879 428.201 112.779C426.501 113.079 424.701 112.479 423.501 111.279L403.701 91.4789C400.301 87.8789 398.901 82.7789 399.801 77.5789C400.901 71.0789 406.201 65.7789 412.601 64.6789C417.701 63.7789 422.601 65.2789 426.301 68.7789C430.001 72.2789 435.001 73.6789 440.101 72.7789C445.301 71.8789 449.901 68.4789 452.301 63.6789C455.001 58.3789 454.401 51.7789 450.701 46.4789C448.301 42.9789 447.001 38.9789 447.001 34.7789C447.001 28.4789 449.801 22.6789 454.701 18.6789C459.601 14.6789 465.901 13.1789 472.301 14.5789C480.001 16.1789 486.201 22.3789 487.901 30.0789C489.201 36.0789 488.001 41.9789 484.501 46.8789C481.701 50.6789 480.801 55.5789 481.801 60.1789C482.801 64.7789 485.801 68.7789 490.001 71.0789C496.201 74.4789 504.101 73.4789 509.701 68.4789C513.401 65.1789 518.201 63.8789 523.201 64.7789C529.801 65.9789 535.101 71.3789 536.101 77.8789Z" fill="#76BC21"/>
<path d="M331 122.279L409 200.379H386.7L319.8 133.479L309.8 143.479L366.6 200.379H344.3L298.6 154.579L288.6 164.679L324.3 200.379H302L277.4 175.779L267.4 185.879L281.9 200.379H252.9V214.579H281.9L267.4 228.979L277.4 239.079L302 214.579H324.2L288.6 250.179L298.6 260.279L344.3 214.579H366.6L309.8 271.379L319.8 281.479L386.7 214.579H409L331 292.579L341 302.579L436.2 207.479L341 112.279L331 122.279Z" fill="#00AC69"/>
<path d="M467.901 239.179L372.301 334.779L394.001 341.979C399.101 343.679 403.001 347.679 404.701 352.779L411.701 374.279L432.201 353.779L424.901 387.079H436.001C442.401 387.079 448.201 390.679 451.101 396.379L467.901 430.079L484.701 396.379C487.501 390.679 493.401 387.079 499.801 387.079H511.001L503.701 353.779L524.201 374.279L531.201 352.779C532.901 347.679 536.801 343.679 541.901 341.979L563.601 334.779L467.901 239.179ZM537.201 328.579L532.301 330.179C526.101 332.279 521.301 337.079 519.201 343.379L517.701 347.879L492.701 322.979L489.801 325.879C486.301 329.379 484.801 334.479 485.801 339.379L493.101 372.879C485.301 372.879 478.201 377.279 474.701 384.279L467.701 398.279L460.701 384.279C457.201 377.279 450.101 372.879 442.301 372.879L449.601 339.379C450.701 334.479 449.201 329.379 445.601 325.879L443.001 322.979L418.001 347.979L416.501 343.479C414.501 337.279 409.601 332.379 403.401 330.279L398.501 328.679L460.701 266.479L460.601 312.779H474.801L474.901 266.379L537.201 328.579Z" fill="#76BC21"/>
<path d="M372.7 395.879C364.5 387.679 353.6 383.179 342 383.179C330.4 383.179 319.5 387.679 311.2 395.879L246.8 460.279L311.2 524.679C319.4 532.879 330.3 537.379 341.9 537.379C353.5 537.379 364.4 532.879 372.6 524.679L437 460.279L372.7 395.879ZM341.9 523.279C334.1 523.279 326.7 520.279 321.2 514.679L273.9 467.379H292.4L347.7 522.679C345.8 523.079 343.9 523.279 341.9 523.279ZM370.8 506.579L362.6 514.779C362.1 515.279 361.6 515.679 361.1 516.079L312.4 467.379H331.5L370.8 506.579ZM390.4 486.979L380.8 496.579L351.6 467.379H370.7L390.4 486.979ZM400.4 476.879L390.8 467.279H410L400.4 476.879ZM409.7 453.079L273.9 453.179L321.2 405.879C326.7 400.379 334.1 397.279 341.9 397.279C349.7 397.279 357.1 400.279 362.6 405.879L409.7 453.079Z" fill="#00AC69"/>
<path d="M247.5 310.879C246.5 311.779 245.1 312.179 244.2 311.679C243.4 311.179 243.1 310.579 243 310.079C242.9 309.679 242.9 308.879 243.4 308.179C249.2 300.079 251.3 290.079 249.1 280.079C246.3 267.079 235.6 256.479 222.5 253.679C212 251.479 201.2 253.979 193 260.679C184.8 267.379 180.1 277.279 180.1 287.779C180.1 294.879 182.2 301.779 186.3 307.579C186.9 308.479 187.2 309.679 186.9 310.279C186.3 311.379 185.3 311.679 184.9 311.779C184.6 311.879 183.8 311.879 183.3 311.379C176.4 304.779 166.9 301.979 157.4 303.679C145.1 305.779 135.1 315.879 133 328.179C131.3 337.879 134.1 347.379 140.7 354.279L160.7 374.279C165.2 378.779 171.6 380.779 178 379.779C180.9 379.279 183.8 381.279 184.3 384.179L185.9 393.379C186.7 398.079 188.9 402.379 192.3 405.779L215.1 428.579L238 405.679C241.4 402.279 243.6 397.979 244.4 393.279L246 384.179C246.5 381.279 249.3 379.279 252.3 379.779C258.6 380.879 265 378.779 269.5 374.279L289 354.779C294.7 349.079 297.7 341.579 297.7 333.579C297.7 331.879 297.6 330.279 297.3 328.579C295.3 316.279 285.4 306.079 273.1 303.779C263.8 302.079 254.5 304.679 247.5 310.879ZM283.2 330.779C284 336.079 282.4 341.079 278.8 344.679L259.3 364.179C258.1 365.379 256.3 365.979 254.6 365.679C243.9 363.879 233.8 371.079 231.9 381.679L230.3 390.779C230 392.579 229.1 394.279 227.8 395.579L222.1 401.279L222.3 349.179L208.1 349.079L207.9 401.379L202.2 395.679C200.9 394.379 200 392.679 199.7 390.879L198.1 381.679C196.3 370.979 186.1 363.779 175.3 365.679C173.6 365.979 171.8 365.379 170.6 364.179L150.8 344.379C147.4 340.779 146 335.679 146.9 330.479C148 323.979 153.3 318.679 159.7 317.579C164.8 316.679 169.7 318.179 173.4 321.679C177.1 325.179 182.1 326.579 187.2 325.679C192.4 324.779 197 321.379 199.4 316.579C202.1 311.279 201.5 304.679 197.8 299.379C195.4 295.879 194.1 291.879 194.1 287.679C194.1 281.379 196.9 275.579 201.8 271.579C206.7 267.579 213 266.079 219.4 267.479C227.1 269.079 233.3 275.279 235 282.979C236.3 288.979 235.1 294.879 231.6 299.779C228.8 303.579 227.9 308.479 228.9 313.079C229.9 317.679 232.9 321.679 237.1 323.979C243.3 327.379 251.2 326.379 256.8 321.379C260.5 318.079 265.3 316.779 270.3 317.679C276.9 318.979 282.1 324.279 283.2 330.779Z" fill="#76BC21"/>
<path d="M78 375.179L156.1 453.279H133.8L66.9 386.379L56.9 396.379L113.7 453.279H91.4L45.7 407.579L35.7 417.579L71.3 453.279H49.1L24.5 428.679L14.5 438.779L29 453.279H0V467.479H29L14.5 481.979L24.5 491.979L49.1 467.479H71.3L35.7 503.079L45.7 513.179L91.4 467.479H113.7L56.8 524.279L66.9 534.379L133.8 467.479H156.1L78 545.479L88.1 555.579L183.3 460.379L88.1 365.179L78 375.179Z" fill="#00AC69"/>
<path d="M215 492.079L119.4 587.679L141.1 594.879C146.2 596.579 150.1 600.579 151.8 605.679L158.8 627.179L179.3 606.679L172 639.979H183.1C189.5 639.979 195.3 643.579 198.2 649.279L215 682.979L231.8 649.279C234.6 643.579 240.5 639.979 246.9 639.979H258L250.7 606.679L271.2 627.179L278.2 605.679C279.9 600.579 283.8 596.579 288.9 594.879L310.6 587.679L215 492.079ZM284.3 581.479L279.4 583.079C273.2 585.179 268.4 589.979 266.3 596.279L264.8 600.779L239.8 575.879L236.9 578.779C233.4 582.279 231.9 587.379 232.9 592.279L240.2 625.779C232.4 625.779 225.3 630.179 221.8 637.179L214.8 651.179L207.8 637.179C204.3 630.179 197.2 625.779 189.4 625.779L196.7 592.279C197.8 587.379 196.3 582.279 192.7 578.779L189.8 575.879L164.8 600.879L163.3 596.379C161.3 590.179 156.4 585.279 150.2 583.179L145.3 581.579L207.5 519.379L207.4 565.679H221.6L221.7 519.279L284.3 581.479Z" fill="#76BC21"/>
</svg>
