<svg width="110" height="110" viewBox="0 0 110 110" fill="none" xmlns="http://www.w3.org/2000/svg">
<path d="M109.478 77.4508C109.478 73.3039 107.819 69.7099 105.055 66.6688C102.29 63.9041 98.4196 62.2454 94.2727 62.2454H62.4795V94.0386C62.4795 98.1855 64.1383 101.78 66.9029 104.821C69.6675 107.585 73.538 109.244 77.6849 109.244H109.478V77.4508ZM70.4969 101.227C68.5617 99.2914 67.4558 96.8032 67.4558 94.0386V70.8157L71.8792 75.2391V102.332C71.6028 102.332 71.0498 101.78 70.4969 101.227ZM81.8319 104.268H77.6849C77.4085 104.268 77.132 104.268 77.132 104.268V80.2154L81.8319 84.9153V104.268ZM91.5081 104.268H86.8082V89.8916L91.5081 94.5915V104.268ZM96.4844 104.268V99.5678L101.184 104.268H96.4844ZM104.502 100.674L71.0498 67.4982H94.2727C97.0373 67.4982 99.5255 68.604 101.461 70.5392C103.396 72.4745 104.502 74.9626 104.502 77.7273V100.674Z" fill="#E5E5E5"/>
<path d="M99.5274 25.7522C98.9744 25.7522 98.698 25.4758 98.4215 25.1993C98.4215 24.9228 98.4215 24.6464 98.4215 24.3699C98.4215 24.3699 98.698 24.0935 98.9744 24.0935C102.292 23.5405 105.333 21.6053 107.268 18.5642C109.756 14.6937 109.756 9.44093 107.268 5.57045C105.333 2.52936 102.016 0.31766 98.4215 0.041197C94.8275 -0.235266 91.2335 0.870585 88.4688 3.63521C86.8101 5.29399 85.4278 7.50569 85.1513 9.99386C85.1513 10.2703 84.8748 10.8232 84.5984 10.8232C84.0454 10.8232 83.769 10.8232 83.769 10.8232C83.769 10.8232 83.4925 10.5468 83.4925 10.2703C83.4925 6.95277 81.8337 3.91168 79.0691 1.97644C75.4751 -0.511728 70.4988 -0.511728 67.1812 1.97644C64.4166 3.91168 62.7578 6.95277 62.7578 10.2703V20.223C62.7578 22.4347 63.8637 24.6464 65.7989 25.7522C66.6283 26.3052 66.9048 27.411 66.3518 28.5169L64.4166 31.2815C63.5872 32.6638 63.0343 34.3226 63.0343 35.9814V47.3163H74.3692C76.028 47.3163 77.6868 46.7634 79.0691 45.934L81.5573 43.9988C82.3867 43.4458 83.4925 43.7223 84.3219 44.5517C85.7042 46.4869 87.6395 47.3163 89.8512 47.3163H99.5274C102.292 47.3163 105.057 46.2105 106.992 44.2752C107.268 43.9988 107.821 43.4458 108.098 42.8929C110.586 39.2989 110.586 34.3226 108.374 31.005C105.886 27.6875 102.845 26.0287 99.5274 25.7522ZM103.398 39.5754C102.292 40.9577 100.633 42.0635 98.9744 42.0635H89.2982C88.7453 42.0635 88.1924 41.7871 87.6395 41.2341C85.4278 38.1931 81.2808 37.3637 78.2397 39.5754L75.7516 41.5106C75.1986 41.7871 74.6457 42.0635 74.0928 42.0635H71.3282L84.0454 29.3462L80.4514 25.7522L67.4577 38.4695V35.7049C67.4577 35.152 67.7341 34.3226 68.0106 34.0461L69.9458 31.2815C72.1575 28.2404 71.3282 23.817 68.2871 21.8818C67.7341 21.6053 67.4577 21.0524 67.4577 20.223V10.5468C67.4577 8.888 68.2871 7.22923 69.9458 6.12338C71.8811 4.74106 74.3692 4.74106 76.3045 6.12338C77.6868 7.22923 78.5162 8.61154 78.7926 10.5468C78.7926 12.2056 79.622 13.8643 81.2808 14.9702C82.6631 16.076 84.8748 16.3525 86.5336 15.7996C88.4688 15.2466 89.8512 13.3114 90.4041 11.0997C90.6805 9.71739 91.2335 8.33508 92.3393 7.22923C93.9981 5.57045 95.9333 5.01753 98.145 5.29399C100.357 5.57045 102.292 6.6763 103.398 8.61154C104.78 10.8232 104.78 13.8643 103.398 16.3525C102.292 17.7348 100.357 19.1171 98.4215 19.3936C96.7627 19.6701 95.3804 20.4994 94.551 21.8818C93.7216 23.2641 93.4452 24.9228 93.9981 26.5816C94.551 29.0698 96.7627 30.7286 99.5274 30.7286C101.186 30.7286 102.845 31.5579 103.674 33.2167C104.78 35.152 104.78 37.6401 103.398 39.5754Z" fill="#E5E5E5"/>
<path d="M42.0213 0.0410156V38.4693L36.7685 32.9401V0.0410156H31.7921V27.9638L26.2629 22.4345V0.0410156H21.2866V17.4582L15.7573 12.2054V0.0410156H10.781V7.22905L3.86941 0.0410156L0.275391 3.63503L7.46342 10.5466H0.275391V15.5229H12.4398L17.6925 21.0522H0.275391V26.0285H22.6689L28.1981 31.5578H0.275391V36.5341H33.1745L38.7037 41.7869H0.275391V46.7632H46.9976V0.0410156H42.0213Z" fill="#E5E5E5"/>
<path d="M46.9987 62.5215H0L3.59402 69.7095C4.4234 71.3683 4.4234 73.3035 3.59402 74.9623L0 81.8739H9.95266L0 88.2325L2.76463 90.9972C4.4234 92.6559 4.97633 94.8676 4.14694 97.0793L0 109.244L12.4408 105.097C14.6525 104.267 16.8642 104.82 18.523 106.479L21.2876 109.244L27.6463 99.291V109.244L34.5578 105.65C36.2166 104.82 38.1519 104.82 39.8106 105.65L46.9987 109.244V62.5215ZM42.0223 101.503L40.3636 100.673C38.4283 99.5675 35.9402 99.5675 34.0049 100.673L32.6226 101.503V89.3384H31.2403C29.5815 89.3384 27.9227 90.1678 26.8169 91.5501L20.4582 101.503C18.523 99.5675 15.7584 99.0146 13.2702 99.8439L8.01742 101.503L9.6762 96.2499C10.5056 93.7618 9.95266 90.7207 8.01742 89.0619L17.9701 82.7033C19.3524 81.5974 20.4582 80.2151 20.4582 78.2799V76.8975H8.01742L8.84681 75.5152C9.95266 73.58 9.95266 71.0918 8.84681 69.1566L8.01742 67.4978H38.7048L27.3698 78.8328L30.9638 82.4268L42.2988 71.0918L42.0223 101.503Z" fill="#76BC21"/>
</svg>
