<?xml version="1.0" encoding="utf-8"?>
<!-- Generator: Adobe Illustrator 16.0.0, SVG Export Plug-In . SVG Version: 6.00 Build 0)  -->
<!DOCTYPE svg PUBLIC "-//W3C//DTD SVG 1.1//EN" "http://www.w3.org/Graphics/SVG/1.1/DTD/svg11.dtd">
<svg version="1.1" xmlns="http://www.w3.org/2000/svg" xmlns:xlink="http://www.w3.org/1999/xlink" x="0px" y="0px" width="80px"
	 height="80px" viewBox="0 0 80 80" enable-background="new 0 0 80 80" xml:space="preserve">
<g id="Слой_2">
	<rect x="5.5" y="6" fill="#FF7D00" width="70" height="71"/>
</g>
<g id="Capa_1">
	<g>
		<g>
			<path fill="#261400" d="M32.468,27.37h-0.119c-0.603,2.423-1.205,5.5-1.873,7.857l-2.418,8.635h9l-2.537-8.635
				C33.8,32.809,33.075,29.793,32.468,27.37z"/>
			<path fill="#261400" d="M75.097,0H4.898C2.191,0,0,2.191,0,4.898v70.203C0,77.805,2.191,80,4.898,80h70.203
				C77.805,80,80,77.805,80,75.102V4.898C80,2.195,77.805,0,75.097,0z M41.529,61.193l-3.144-10.445h-11.65l-2.902,10.445h-9.541
				l12.443-40.699h12.073l12.628,40.699H41.529z M65.404,61.193H56.22V31.666h9.185V61.193z M60.758,28.043
				c-2.897,0-4.832-2.058-4.775-4.595c-0.057-2.661,1.878-4.643,4.842-4.643c2.954,0,4.827,1.987,4.884,4.643
				C65.708,25.985,63.778,28.043,60.758,28.043z"/>
		</g>
	</g>
</g>
</svg>
